<svg width="31" height="32" viewBox="0 0 31 32" fill="none" xmlns="http://www.w3.org/2000/svg">
<path d="M14.0146 3.17646C8.10016 3.81541 3.34289 8.54359 2.70001 14.2941C2.05714 20.3002 5.52866 25.6673 10.8002 27.7119C11.186 27.8397 11.5717 27.5841 11.5717 27.073V25.0283C11.5717 25.0283 11.0574 25.1561 10.4145 25.1561C8.61446 25.1561 7.84301 23.6227 7.71444 22.7281C7.58586 22.217 7.32871 21.8336 6.94299 21.4503C6.55726 21.3225 6.42869 21.3225 6.42869 21.1947C6.42869 20.9391 6.81441 20.9391 6.94299 20.9391C7.71444 20.9391 8.35731 21.8336 8.61446 22.217C9.25734 23.2393 10.0288 23.4949 10.4145 23.4949C10.9288 23.4949 11.3145 23.3671 11.5717 23.2393C11.7003 22.3448 12.086 21.4503 12.8574 20.9391C9.90021 20.3002 7.71444 18.6389 7.71444 15.8276C7.71444 14.4219 8.35731 13.0162 9.25734 11.9939C9.12876 11.7383 9.00019 11.0994 9.00019 10.2048C9.00019 9.69369 9.00019 8.92696 9.38591 8.16023C9.38591 8.16023 11.186 8.16023 12.986 9.82148C13.6289 9.5659 14.5289 9.43811 15.4289 9.43811C16.329 9.43811 17.229 9.5659 18.0004 9.82148C19.6719 8.16023 21.6005 8.16023 21.6005 8.16023C21.8577 8.92696 21.8577 9.69369 21.8577 10.2048C21.8577 11.2272 21.7291 11.7383 21.6005 11.9939C22.5006 13.0162 23.1434 14.2941 23.1434 15.8276C23.1434 18.6389 20.9577 20.3002 18.0004 20.9391C18.7719 21.5781 19.2862 22.7281 19.2862 23.8782V27.2008C19.2862 27.5841 19.6719 27.9675 20.1862 27.8397C24.9435 25.9229 28.2864 21.3225 28.2864 15.9553C28.2864 8.28801 21.7291 2.28194 14.0146 3.17646Z" fill="#777777"/>
</svg>
