<svg width="32" height="32" viewBox="0 0 32 32" fill="none" xmlns="http://www.w3.org/2000/svg">
<g clip-path="url(#clip0)">
<path d="M7.41947 7.2041C3.87466 7.2041 0.990723 10.0704 0.990723 13.5935V23.8166C0.990723 27.3398 3.87466 30.2061 7.41947 30.2061H17.7055C21.2503 30.2061 24.1342 27.3398 24.1342 23.8166V13.5935C24.1342 10.0704 21.2503 7.2041 17.7055 7.2041H7.41947ZM7.41947 9.75988H17.7055C19.8321 9.75988 21.5627 11.4799 21.5627 13.5935V23.8166C21.5627 25.9303 19.8321 27.6503 17.7055 27.6503H7.41947C5.29284 27.6503 3.56222 25.9303 3.56222 23.8166V13.5935C3.56222 11.4799 5.29284 9.75988 7.41947 9.75988ZM18.9912 11.0378C18.6502 11.0378 18.3232 11.1724 18.0821 11.412C17.8409 11.6517 17.7055 11.9767 17.7055 12.3156C17.7055 12.6546 17.8409 12.9796 18.0821 13.2193C18.3232 13.4589 18.6502 13.5935 18.9912 13.5935C19.3322 13.5935 19.6593 13.4589 19.9004 13.2193C20.1415 12.9796 20.277 12.6546 20.277 12.3156C20.277 11.9767 20.1415 11.6517 19.9004 11.412C19.6593 11.1724 19.3322 11.0378 18.9912 11.0378ZM12.5625 12.3156C9.01766 12.3156 6.13372 15.182 6.13372 18.7051C6.13372 22.2282 9.01766 25.0945 12.5625 25.0945C16.1073 25.0945 18.9912 22.2282 18.9912 18.7051C18.9912 15.182 16.1073 12.3156 12.5625 12.3156ZM12.5625 14.8714C14.6891 14.8714 16.4197 16.5915 16.4197 18.7051C16.4197 20.8187 14.6891 22.5387 12.5625 22.5387C10.4358 22.5387 8.70522 20.8187 8.70522 18.7051C8.70522 16.5915 10.4358 14.8714 12.5625 14.8714Z" fill="#777777"/>
</g>
<defs>
<clipPath id="clip0">
<rect width="30.858" height="30.6693" fill="white" transform="translate(0.144897 0.378296)"/>
</clipPath>
</defs>
</svg>
