<svg width="28" height="28" viewBox="0 0 28 28" fill="none" xmlns="http://www.w3.org/2000/svg">
<g clip-path="url(#clip0)">
<path d="M13.8504 27.2813C21.2267 27.2813 27.2064 21.3016 27.2064 13.9253C27.2064 6.54901 21.2267 0.569336 13.8504 0.569336C6.47406 0.569336 0.494385 6.54901 0.494385 13.9253C0.494385 21.3016 6.47406 27.2813 13.8504 27.2813Z" fill="#777777"/>
<path d="M6.05294 13.8096L15.0471 10.1038C15.9349 9.71785 18.9459 8.48264 18.9459 8.48264C18.9459 8.48264 20.3356 7.94228 20.2198 9.25462C20.1811 9.79498 19.8725 11.6865 19.5635 13.7322L18.5986 19.7925C18.5986 19.7925 18.5213 20.6803 17.864 20.8347C17.2066 20.9891 16.1269 20.2943 15.934 20.1399C15.7797 20.0241 13.0389 18.287 12.0352 17.4378C11.765 17.2063 11.4562 16.743 12.0738 16.2026C13.4635 14.9288 15.1234 13.3461 16.1269 12.3425C16.5901 11.8793 17.0534 10.7985 15.1233 12.111L9.68054 15.7781C9.68054 15.7781 9.06283 16.1641 7.90486 15.8167C6.7469 15.4694 5.39583 15.0062 5.39583 15.0062C5.39583 15.0062 4.46937 14.4272 6.05205 13.8097L6.05294 13.8096Z" fill="#2E2E2E"/>
</g>
<defs>
<clipPath id="clip0">
<rect width="26.712" height="26.712" fill="white" transform="translate(0.494385 0.569336)"/>
</clipPath>
</defs>
</svg>
